<?xml version="1.0" encoding="utf-8"?>
<!-- Generator: Adobe Illustrator 13.0.2, SVG Export Plug-In . SVG Version: 6.00 Build 14948)  -->
<!DOCTYPE svg PUBLIC "-//W3C//DTD SVG 1.1//EN" "http://www.w3.org/Graphics/SVG/1.1/DTD/svg11.dtd">
<svg version="1.1" xmlns="http://www.w3.org/2000/svg" xmlns:xlink="http://www.w3.org/1999/xlink" x="0px" y="0px"
	 width="1024.417px" height="614.815px" viewBox="0 0 1024.417 614.815" enable-background="new 0 0 1024.417 614.815"
	 xml:space="preserve">
<g id="Layer_3">
</g>
<g id="Flag">
	
		<rect x="248.495" y="151.051" fill-rule="evenodd" clip-rule="evenodd" fill="none" stroke="#000000" stroke-width="0.9213" width="527.211" height="316.271"/>
</g>
<g id="Sidebar">
	<polygon display="none" fill="#F5A2C6" stroke="#002D62" stroke-width="0.25" points="775.765,256.464 775.765,200.721 
		665.431,256.08 	"/>
	<g>
		<g>
			<rect x="0.243" y="1.188" fill="#002D62" stroke="#002D62" stroke-width="0.485" width="1023.275" height="612.519"/>
			<polygon fill="#FFFFFF" stroke="#0063AD" stroke-width="0.0242" points="0.243,205.303 216.366,205.303 0.243,75.578 
				0.243,1.188 123.898,1.188 410.7,191.713 410.7,1.188 613.927,1.188 613.927,183.725 889.385,1.188 1023.518,1.188 
				1023.518,76.225 808.264,205.303 1023.518,205.303 1023.518,409.568 806.324,409.568 1023.518,538.913 1023.518,613.707 
				898.793,613.707 613.927,424.209 613.927,613.707 410.7,613.707 410.7,423.404 123.898,613.707 0.243,613.707 0.243,538.429 
				216.366,409.568 0.243,409.568 			"/>
		</g>
		<polygon fill="#E31937" points="0.242,247.674 453.712,247.674 453.712,1.187 574.163,1.187 574.163,247.674 1023.52,247.674 
			1023.52,367.296 574.163,367.296 574.63,613.709 453.712,613.709 453.712,367.296 0.242,367.296 		"/>
		<polygon fill="#002D62" stroke="#002D62" stroke-width="0.485" points="612.578,192.301 612.578,0.243 931.057,0.243 		"/>
		<g>
			<polygon fill="#002D62" stroke="#002D62" stroke-width="0.485" points="411.783,192.301 411.783,0.243 93.305,0.243 			"/>
			<polygon display="none" fill="#F5A2C6" stroke="#002D62" stroke-width="0.485" points="0.506,205.234 0.506,97.093 
				214.552,204.49 			"/>
		</g>
		<g>
			<polygon fill="#002D62" stroke="#002D62" stroke-width="0.485" points="612.898,422.514 612.898,614.573 931.377,614.573 			"/>
			<polygon display="none" fill="#F5A2C6" stroke="#002D62" stroke-width="0.485" points="1024.175,409.581 1024.175,517.723 
				810.128,410.326 			"/>
		</g>
		<g>
			<polygon fill="#002D62" stroke="#002D62" stroke-width="0.485" points="411.783,422.353 411.783,614.412 93.305,614.412 			"/>
			<polygon display="none" fill="#F5A2C6" stroke="#002D62" stroke-width="0.485" points="0.506,409.421 0.506,517.562 
				214.552,410.165 			"/>
		</g>
		<polygon fill="#E31937" points="340.92,205.396 265.025,205.396 0.183,46.781 0.183,0.242 		"/>
		<polygon fill="#E31937" points="682.736,409.74 758.631,409.74 1023.474,567.979 1023.474,614.41 		"/>
		<polygon fill="#E31937" points="0.431,602.789 318.381,412.362 385.919,412.362 50.41,613.711 0.503,613.683 		"/>
		<polygon fill="#E31937" points="1024.183,13.841 704.23,205.583 632.024,206.53 976.77,0.893 1023.529,0.893 		"/>
	</g>
</g>
</svg>
